<svg width="100" height="100" viewBox="0 0 100 100" fill="none" xmlns="http://www.w3.org/2000/svg">
<circle cx="50" cy="50" r="50" fill="#12111A"/>
<g filter="url(#filter0_d_308_1163)">
<path d="M14.04 36.1836C13.8309 35.1934 14.4621 34.219 15.4523 34.0059C22.6558 32.4713 29.9856 35.9981 33.2796 42.5823L38.8617 53.7308C41.1182 58.232 46.156 60.7686 51.1187 59.9007L74.4256 55.435C75.4237 55.2417 76.3823 55.8966 76.5717 56.8907C76.761 57.8848 76.1101 58.8474 75.116 59.0368L51.7815 63.5064C50.9136 63.6603 50.0457 63.7313 49.1857 63.7313C43.5168 63.7313 38.1635 60.5279 35.5835 55.3679L30.0013 44.2195C27.4529 39.1304 21.784 36.4045 16.2176 37.5919C15.2235 37.801 14.253 37.1698 14.04 36.1796" fill="white"/>
<path d="M50.9683 74C48.5737 74 46.6328 72.0591 46.6328 69.6645C46.6328 67.2699 48.5737 65.329 50.9683 65.329C53.3629 65.329 55.3038 67.2699 55.3038 69.6645C55.3038 72.0591 53.3629 74 50.9683 74Z" fill="#A21D21"/>
<path d="M68.275 70.5836C65.8804 70.5836 63.9395 68.6427 63.9395 66.2481C63.9395 63.8535 65.8804 61.9126 68.275 61.9126C70.6696 61.9126 72.6105 63.8535 72.6105 66.2481C72.6105 68.6427 70.6696 70.5836 68.275 70.5836Z" fill="white"/>
<path d="M43.4754 54.7367C59.7011 47.478 64.7704 36.1599 66.3286 29.1142C65.2122 28.9406 64.0484 28.9564 62.8689 29.2207L32.9424 36.0021L39.637 50.0067C40.5483 51.9161 41.8817 53.5098 43.4754 54.7367V54.7367Z" fill="#A21D21"/>
<path d="M74.0917 37.6274C73.8313 33.4654 70.8726 30.2108 67.1249 29.2759C66.616 47.4306 58.3434 54.642 53.8027 57.2417C53.9092 57.222 54.0158 57.2102 54.1223 57.1905L75.0464 52.8352L74.0917 37.6313V37.6274Z" fill="#A21D21"/>
</g>
<defs>
<filter id="filter0_d_308_1163" x="10" y="29" width="70.6045" height="53" filterUnits="userSpaceOnUse" color-interpolation-filters="sRGB">
<feFlood flood-opacity="0" result="BackgroundImageFix"/>
<feColorMatrix in="SourceAlpha" type="matrix" values="0 0 0 0 0 0 0 0 0 0 0 0 0 0 0 0 0 0 127 0" result="hardAlpha"/>
<feOffset dy="4"/>
<feGaussianBlur stdDeviation="2"/>
<feComposite in2="hardAlpha" operator="out"/>
<feColorMatrix type="matrix" values="0 0 0 0 0 0 0 0 0 0 0 0 0 0 0 0 0 0 1 0"/>
<feBlend mode="normal" in2="BackgroundImageFix" result="effect1_dropShadow_308_1163"/>
<feBlend mode="normal" in="SourceGraphic" in2="effect1_dropShadow_308_1163" result="shape"/>
</filter>
</defs>
</svg>
