<svg width="75" height="54" viewBox="0 0 75 54" fill="none" xmlns="http://www.w3.org/2000/svg">
<path d="M0.547338 8.50146C0.299895 7.32961 1.04689 6.17644 2.21874 5.92433C10.7438 4.10819 19.4183 8.28203 23.3167 16.0741L29.9229 29.2679C32.5935 34.595 38.5554 37.5969 44.4287 36.5698L72.0115 31.2848C73.1927 31.0561 74.3272 31.8311 74.5513 33.0076C74.7754 34.1841 74.005 35.3233 72.8285 35.5474L45.213 40.837C44.1859 41.0191 43.1588 41.1032 42.141 41.1032C35.432 41.1032 29.0966 37.3122 26.0432 31.2055L19.437 18.0117C16.421 11.989 9.71204 8.76291 3.12447 10.1682C1.94795 10.4156 0.799449 9.66864 0.547338 8.49679" fill="white"/>
<path d="M44.251 53.2559C41.4171 53.2559 39.1201 50.9589 39.1201 48.1249C39.1201 45.291 41.4171 42.994 44.251 42.994C47.085 42.994 49.382 45.291 49.382 48.1249C49.382 50.9589 47.085 53.2559 44.251 53.2559Z" fill="white"/>
<path d="M64.7325 49.2128C61.8986 49.2128 59.6016 46.9158 59.6016 44.0819C59.6016 41.2479 61.8986 38.9509 64.7325 38.9509C67.5664 38.9509 69.8634 41.2479 69.8634 44.0819C69.8634 46.9158 67.5664 49.2128 64.7325 49.2128Z" fill="white"/>
<path d="M35.3844 30.4585C54.5869 21.868 60.5862 8.47346 62.4303 0.135121C61.1091 -0.0703024 59.7318 -0.0516275 58.3359 0.261177L22.9189 8.28671L30.8418 24.8607C31.9202 27.1203 33.4983 29.0065 35.3844 30.4585Z" fill="white"/>
<path d="M71.6187 10.2102C71.3105 5.28472 67.809 1.43303 63.3737 0.326538C62.7714 21.812 52.9811 30.3464 47.6074 33.4231C47.7335 33.3998 47.8595 33.3858 47.9856 33.3624L72.7485 28.2082L71.6187 10.2149V10.2102Z" fill="white"/>
</svg>
